<svg width="18" height="16" viewBox="0 0 18 16" fill="none" xmlns="http://www.w3.org/2000/svg">
<g id="Frame">
<path d="M0 0H18V16H0V0Z" stroke="#E5E7EB"/>
<path id="Vector" d="M14.5 5C14.775 5 15 5.225 15 5.5V10.5C15 10.775 14.775 11 14.5 11H2.5C2.225 11 2 10.775 2 10.5V5.5C2 5.225 2.225 5 2.5 5H14.5ZM2.5 3C1.11875 3 0 4.11875 0 5.5V10.5C0 11.8813 1.11875 13 2.5 13H14.5C15.8813 13 17 11.8813 17 10.5V10C17.5531 10 18 9.55312 18 9V7C18 6.44688 17.5531 6 17 6V5.5C17 4.11875 15.8813 3 14.5 3H2.5ZM14 6H3V10H14V6Z" fill="#22C55E"/>
</g>
</svg>
