<svg width="16" height="16" viewBox="0 0 16 16" fill="none" xmlns="http://www.w3.org/2000/svg">
<g id="Frame">
<g clip-path="url(#clip0_8_293)">
<path id="Vector" d="M4.46562 4.46563C6.40937 2.52188 9.55 2.5125 11.5063 4.43438L10.2188 5.71875C10.0031 5.93438 9.94062 6.25625 10.0562 6.5375C10.1719 6.81875 10.4469 7 10.75 7H14.4844H14.75C15.1656 7 15.5 6.66563 15.5 6.25V2.25C15.5 1.94688 15.3188 1.67188 15.0375 1.55625C14.7563 1.44063 14.4344 1.50313 14.2188 1.71875L12.9187 3.01875C10.1812 0.315628 5.77187 0.325003 3.05 3.05C2.2875 3.8125 1.7375 4.70938 1.4 5.66875C1.21562 6.19063 1.49063 6.75938 2.00938 6.94375C2.52813 7.12813 3.1 6.85313 3.28437 6.33438C3.525 5.65313 3.91562 5.0125 4.46562 4.46563ZM0.5 9.75V9.9875V10.0094V13.75C0.5 14.0531 0.68125 14.3281 0.9625 14.4438C1.24375 14.5594 1.56562 14.4969 1.78125 14.2813L3.08125 12.9813C5.81875 15.6844 10.2281 15.675 12.95 12.95C13.7125 12.1875 14.2656 11.2906 14.6031 10.3344C14.7875 9.8125 14.5125 9.24375 13.9937 9.05938C13.475 8.875 12.9031 9.15 12.7188 9.66875C12.4781 10.35 12.0875 10.9906 11.5375 11.5375C9.59375 13.4813 6.45312 13.4906 4.49687 11.5688L5.78125 10.2813C5.99687 10.0656 6.05937 9.74375 5.94375 9.4625C5.82812 9.18125 5.55312 9 5.25 9H1.5125H1.49063H1.25C0.834375 9 0.5 9.33438 0.5 9.75Z" fill="#9CA3AF"/>
</g>
</g>
<defs>
<clipPath id="clip0_8_293">
<path d="M0 0H16V16H0V0Z" fill="white"/>
</clipPath>
</defs>
</svg>
